<svg width="12" height="18" viewBox="0 0 12 18" fill="none" xmlns="http://www.w3.org/2000/svg">
<path d="M5.99999 8.58333C5.44746 8.58333 4.91755 8.36384 4.52685 7.97314C4.13615 7.58244 3.91666 7.05254 3.91666 6.5C3.91666 5.94747 4.13615 5.41756 4.52685 5.02686C4.91755 4.63616 5.44746 4.41667 5.99999 4.41667C6.55253 4.41667 7.08243 4.63616 7.47313 5.02686C7.86383 5.41756 8.08332 5.94747 8.08332 6.5C8.08332 6.77359 8.02944 7.0445 7.92474 7.29726C7.82004 7.55002 7.66659 7.77968 7.47313 7.97314C7.27967 8.16659 7.05001 8.32005 6.79725 8.42475C6.54449 8.52945 6.27358 8.58333 5.99999 8.58333ZM5.99999 0.666667C4.45289 0.666667 2.96916 1.28125 1.8752 2.37521C0.781238 3.46917 0.166656 4.9529 0.166656 6.5C0.166656 10.875 5.99999 17.3333 5.99999 17.3333C5.99999 17.3333 11.8333 10.875 11.8333 6.5C11.8333 4.9529 11.2187 3.46917 10.1248 2.37521C9.03082 1.28125 7.54709 0.666667 5.99999 0.666667Z" fill="#4961FC"/>
</svg>
